<svg xmlns="http://www.w3.org/2000/svg" width="960" height="520" viewBox="0 0 960 520">
<rect width="960" height="520" fill="white"/>
<text x="70" y="20" font-family="sans-serif" font-size="16">Genome-wide fusion-hotspot summary: FDR significance vs. composite evidence rank</text>
<line x1="70" y1="50" x2="70" y2="450" stroke="#444" stroke-width="1.5"/>
<line x1="70" y1="450" x2="930" y2="450" stroke="#444" stroke-width="1.5"/>
<text x="500.0" y="502" font-family="sans-serif" font-size="12" text-anchor="middle">Genes ranked by composite evidence score (highest first)</text>
<text x="18" y="250.0" font-family="sans-serif" font-size="12" text-anchor="middle" transform="rotate(-90 18 250.0)">-log10(FDR-adjusted q-value)</text>
<line id="fdr-threshold-line" x1="70" y1="248.93" x2="930" y2="248.93" stroke="#888" stroke-width="1.2" stroke-dasharray="6,4"/>
<text x="930" y="243.9" font-family="sans-serif" font-size="11" text-anchor="end" fill="#666">q = 0.05 threshold</text>
<circle cx="70.00" cy="450.00" r="2.6" fill="#2878b5" data-gene="B2M" data-significant="false"/>
<circle cx="72.36" cy="450.00" r="2.6" fill="#2878b5" data-gene="LRP1" data-significant="false"/>
<circle cx="74.71" cy="320.54" r="2.6" fill="#2878b5" data-gene="PRKACA" data-significant="false"/>
<circle cx="77.07" cy="355.24" r="2.6" fill="#2878b5" data-gene="SRP19" data-significant="false"/>
<circle cx="79.42" cy="415.52" r="2.6" fill="#2878b5" data-gene="ATP1B2" data-significant="false"/>
<circle cx="81.78" cy="450.00" r="2.6" fill="#2878b5" data-gene="GALNT11" data-significant="false"/>
<circle cx="84.14" cy="320.54" r="2.6" fill="#2878b5" data-gene="KIAA1549" data-significant="false"/>
<circle cx="86.49" cy="320.54" r="2.6" fill="#2878b5" data-gene="WT1" data-significant="false"/>
<circle cx="88.85" cy="386.49" r="2.6" fill="#2878b5" data-gene="FLI1" data-significant="false"/>
<circle cx="91.21" cy="450.00" r="2.6" fill="#2878b5" data-gene="EXOC4" data-significant="false"/>
<circle cx="93.56" cy="450.00" r="2.6" fill="#2878b5" data-gene="FOXA1" data-significant="false"/>
<circle cx="95.92" cy="450.00" r="2.6" fill="#2878b5" data-gene="PIK3CA" data-significant="false"/>
<circle cx="98.27" cy="450.00" r="2.6" fill="#2878b5" data-gene="DICER1" data-significant="false"/>
<circle cx="100.63" cy="320.54" r="2.6" fill="#2878b5" data-gene="TRAPPC9" data-significant="false"/>
<circle cx="102.99" cy="450.00" r="2.6" fill="#2878b5" data-gene="ST7" data-significant="false"/>
<circle cx="105.34" cy="450.00" r="2.6" fill="#2878b5" data-gene="NFE2L2" data-significant="false"/>
<circle cx="107.70" cy="320.54" r="2.6" fill="#2878b5" data-gene="EML4" data-significant="false"/>
<circle cx="110.05" cy="320.54" r="2.6" fill="#2878b5" data-gene="CD74" data-significant="false"/>
<circle cx="112.41" cy="450.00" r="2.6" fill="#2878b5" data-gene="ASPSCR1" data-significant="false"/>
<circle cx="114.77" cy="320.54" r="2.6" fill="#2878b5" data-gene="NTRK3" data-significant="false"/>
<circle cx="117.12" cy="450.00" r="2.6" fill="#2878b5" data-gene="KIF5B" data-significant="false"/>
<circle cx="119.48" cy="450.00" r="2.6" fill="#2878b5" data-gene="PIK3C3" data-significant="false"/>
<circle cx="121.84" cy="450.00" r="2.6" fill="#2878b5" data-gene="TACC2" data-significant="false"/>
<circle cx="124.19" cy="450.00" r="2.6" fill="#2878b5" data-gene="BMPR1A" data-significant="false"/>
<circle cx="126.55" cy="450.00" r="2.6" fill="#2878b5" data-gene="IKZF1" data-significant="false"/>
<circle cx="128.90" cy="450.00" r="2.6" fill="#2878b5" data-gene="ATE1" data-significant="false"/>
<circle cx="131.26" cy="450.00" r="2.6" fill="#2878b5" data-gene="HCN1" data-significant="false"/>
<circle cx="133.62" cy="450.00" r="2.6" fill="#2878b5" data-gene="SDHAF2" data-significant="false"/>
<circle cx="135.97" cy="450.00" r="2.6" fill="#2878b5" data-gene="SMARCE1" data-significant="false"/>
<circle cx="138.33" cy="450.00" r="2.6" fill="#2878b5" data-gene="SPTBN1" data-significant="false"/>
<circle cx="140.68" cy="450.00" r="2.6" fill="#2878b5" data-gene="EIF4A2" data-significant="false"/>
<circle cx="143.04" cy="421.64" r="2.6" fill="#2878b5" data-gene="ARID1B" data-significant="false"/>
<circle cx="145.40" cy="450.00" r="2.6" fill="#2878b5" data-gene="GRB7" data-significant="false"/>
<circle cx="147.75" cy="320.54" r="2.6" fill="#2878b5" data-gene="TPM3" data-significant="false"/>
<circle cx="150.11" cy="320.54" r="2.6" fill="#2878b5" data-gene="ETV1" data-significant="false"/>
<circle cx="152.47" cy="320.54" r="2.6" fill="#2878b5" data-gene="TMPRSS2" data-significant="false"/>
<circle cx="154.82" cy="320.54" r="2.6" fill="#2878b5" data-gene="ALK" data-significant="false"/>
<circle cx="157.18" cy="320.54" r="2.6" fill="#2878b5" data-gene="AGK" data-significant="false"/>
<circle cx="159.53" cy="320.54" r="2.6" fill="#2878b5" data-gene="EZR" data-significant="false"/>
<circle cx="161.89" cy="320.54" r="2.6" fill="#2878b5" data-gene="GOPC" data-significant="false"/>
<circle cx="164.25" cy="320.54" r="2.6" fill="#2878b5" data-gene="EMID1" data-significant="false"/>
<circle cx="166.60" cy="450.00" r="2.6" fill="#2878b5" data-gene="PREX2" data-significant="false"/>
<circle cx="168.96" cy="450.00" r="2.6" fill="#2878b5" data-gene="AXIN2" data-significant="false"/>
<circle cx="171.32" cy="450.00" r="2.6" fill="#2878b5" data-gene="TCF7L2" data-significant="false"/>
<circle cx="173.67" cy="450.00" r="2.6" fill="#2878b5" data-gene="ERCC5" data-significant="false"/>
<circle cx="176.03" cy="450.00" r="2.6" fill="#2878b5" data-gene="CTCF" data-significant="false"/>
<circle cx="178.38" cy="450.00" r="2.6" fill="#2878b5" data-gene="RECQL" data-significant="false"/>
<circle cx="180.74" cy="450.00" r="2.6" fill="#2878b5" data-gene="SLC25A21" data-significant="false"/>
<circle cx="183.10" cy="450.00" r="2.6" fill="#2878b5" data-gene="CRKL" data-significant="false"/>
<circle cx="185.45" cy="450.00" r="2.6" fill="#2878b5" data-gene="SBNO2" data-significant="false"/>
<circle cx="187.81" cy="450.00" r="2.6" fill="#2878b5" data-gene="SHANK2" data-significant="false"/>
<circle cx="190.16" cy="450.00" r="2.6" fill="#2878b5" data-gene="APC" data-significant="false"/>
<circle cx="192.52" cy="450.00" r="2.6" fill="#2878b5" data-gene="MKRN1" data-significant="false"/>
<circle cx="194.88" cy="439.20" r="2.6" fill="#2878b5" data-gene="CTTNBP2" data-significant="false"/>
<circle cx="197.23" cy="355.24" r="2.6" fill="#2878b5" data-gene="CREB1" data-significant="false"/>
<circle cx="199.59" cy="320.54" r="2.6" fill="#2878b5" data-gene="NAB2" data-significant="false"/>
<circle cx="201.95" cy="450.00" r="2.6" fill="#2878b5" data-gene="CHEK2" data-significant="false"/>
<circle cx="204.30" cy="320.54" r="2.6" fill="#2878b5" data-gene="ATF1" data-significant="false"/>
<circle cx="206.66" cy="450.00" r="2.6" fill="#2878b5" data-gene="TRIM24" data-significant="false"/>
<circle cx="209.01" cy="320.54" r="2.6" fill="#2878b5" data-gene="CCDC6" data-significant="false"/>
<circle cx="211.37" cy="320.54" r="2.6" fill="#2878b5" data-gene="TACC3" data-significant="false"/>
<circle cx="213.73" cy="450.00" r="2.6" fill="#2878b5" data-gene="DGKH" data-significant="false"/>
<circle cx="216.08" cy="448.85" r="2.6" fill="#2878b5" data-gene="SMARCB1" data-significant="false"/>
<circle cx="218.44" cy="450.00" r="2.6" fill="#2878b5" data-gene="CSDE1" data-significant="false"/>
<circle cx="220.79" cy="450.00" r="2.6" fill="#2878b5" data-gene="NTRK2" data-significant="false"/>
<circle cx="223.15" cy="450.00" r="2.6" fill="#2878b5" data-gene="SOX9" data-significant="false"/>
<circle cx="225.51" cy="450.00" r="2.6" fill="#2878b5" data-gene="MAP3K13" data-significant="false"/>
<circle cx="227.86" cy="450.00" r="2.6" fill="#2878b5" data-gene="RAD54L" data-significant="false"/>
<circle cx="230.22" cy="450.00" r="2.6" fill="#2878b5" data-gene="FLT3" data-significant="false"/>
<circle cx="232.58" cy="450.00" r="2.6" fill="#2878b5" data-gene="PIK3CB" data-significant="false"/>
<circle cx="234.93" cy="450.00" r="2.6" fill="#2878b5" data-gene="PTCH1" data-significant="false"/>
<circle cx="237.29" cy="450.00" r="2.6" fill="#2878b5" data-gene="SUZ12" data-significant="false"/>
<circle cx="239.64" cy="450.00" r="2.6" fill="#2878b5" data-gene="E2F3" data-significant="false"/>
<circle cx="242.00" cy="450.00" r="2.6" fill="#2878b5" data-gene="NUP93" data-significant="false"/>
<circle cx="244.36" cy="450.00" r="2.6" fill="#2878b5" data-gene="EPAS1" data-significant="false"/>
<circle cx="246.71" cy="450.00" r="2.6" fill="#2878b5" data-gene="SESN1" data-significant="false"/>
<circle cx="249.07" cy="450.00" r="2.6" fill="#2878b5" data-gene="HNF1A" data-significant="false"/>
<circle cx="251.42" cy="450.00" r="2.6" fill="#2878b5" data-gene="IRF4" data-significant="false"/>
<circle cx="253.78" cy="450.00" r="2.6" fill="#2878b5" data-gene="PICALM" data-significant="false"/>
<circle cx="256.14" cy="450.00" r="2.6" fill="#2878b5" data-gene="TMEM117" data-significant="false"/>
<circle cx="258.49" cy="450.00" r="2.6" fill="#2878b5" data-gene="WWOX" data-significant="false"/>
<circle cx="260.85" cy="436.65" r="2.6" fill="#2878b5" data-gene="FAT1" data-significant="false"/>
<circle cx="263.21" cy="450.00" r="2.6" fill="#2878b5" data-gene="RELA" data-significant="false"/>
<circle cx="265.56" cy="436.65" r="2.6" fill="#2878b5" data-gene="MTAP" data-significant="false"/>
<circle cx="267.92" cy="450.00" r="2.6" fill="#2878b5" data-gene="AKT1" data-significant="false"/>
<circle cx="270.27" cy="355.24" r="2.6" fill="#2878b5" data-gene="FOXO1" data-significant="false"/>
<circle cx="272.63" cy="450.00" r="2.6" fill="#2878b5" data-gene="SOX2" data-significant="false"/>
<circle cx="274.99" cy="450.00" r="2.6" fill="#2878b5" data-gene="LDLR" data-significant="false"/>
<circle cx="277.34" cy="436.65" r="2.6" fill="#2878b5" data-gene="BLM" data-significant="false"/>
<circle cx="279.70" cy="447.19" r="2.6" fill="#2878b5" data-gene="MPL" data-significant="false"/>
<circle cx="282.05" cy="448.85" r="2.6" fill="#2878b5" data-gene="GRIN2A" data-significant="false"/>
<circle cx="284.41" cy="450.00" r="2.6" fill="#2878b5" data-gene="SMAD4" data-significant="false"/>
<circle cx="286.77" cy="450.00" r="2.6" fill="#2878b5" data-gene="ANKRD11" data-significant="false"/>
<circle cx="289.12" cy="450.00" r="2.6" fill="#2878b5" data-gene="NBN" data-significant="false"/>
<circle cx="291.48" cy="450.00" r="2.6" fill="#2878b5" data-gene="TBX3" data-significant="false"/>
<circle cx="293.84" cy="450.00" r="2.6" fill="#2878b5" data-gene="ARID5B" data-significant="false"/>
<circle cx="296.19" cy="450.00" r="2.6" fill="#2878b5" data-gene="MED12" data-significant="false"/>
<circle cx="298.55" cy="450.00" r="2.6" fill="#2878b5" data-gene="MSH6" data-significant="false"/>
<circle cx="300.90" cy="450.00" r="2.6" fill="#2878b5" data-gene="RIT1" data-significant="false"/>
<circle cx="303.26" cy="450.00" r="2.6" fill="#2878b5" data-gene="CEBPA" data-significant="false"/>
<circle cx="305.62" cy="450.00" r="2.6" fill="#2878b5" data-gene="DUSP4" data-significant="false"/>
<circle cx="307.97" cy="450.00" r="2.6" fill="#2878b5" data-gene="MCL1" data-significant="false"/>
<circle cx="310.33" cy="450.00" r="2.6" fill="#2878b5" data-gene="NOS1AP" data-significant="false"/>
<circle cx="312.68" cy="320.54" r="2.6" fill="#2878b5" data-gene="FGFR3" data-significant="false"/>
<circle cx="315.04" cy="320.54" r="2.6" fill="#2878b5" data-gene="LMNA" data-significant="false"/>
<circle cx="317.40" cy="432.73" r="2.6" fill="#2878b5" data-gene="TPR" data-significant="false"/>
<circle cx="319.75" cy="450.00" r="2.6" fill="#2878b5" data-gene="FBXL7" data-significant="false"/>
<circle cx="322.11" cy="355.24" r="2.6" fill="#2878b5" data-gene="STRN" data-significant="false"/>
<circle cx="324.47" cy="320.54" r="2.6" fill="#2878b5" data-gene="ERG" data-significant="false"/>
<circle cx="326.82" cy="388.65" r="2.6" fill="#2878b5" data-gene="AGO2" data-significant="false"/>
<circle cx="329.18" cy="320.54" r="2.6" fill="#2878b5" data-gene="STAT6" data-significant="false"/>
<circle cx="331.53" cy="320.54" r="2.6" fill="#2878b5" data-gene="BICC1" data-significant="false"/>
<circle cx="333.89" cy="432.73" r="2.6" fill="#2878b5" data-gene="SND1" data-significant="false"/>
<circle cx="336.25" cy="432.73" r="2.6" fill="#2878b5" data-gene="EIF3H" data-significant="false"/>
<circle cx="338.60" cy="450.00" r="2.6" fill="#2878b5" data-gene="DIS3" data-significant="false"/>
<circle cx="340.96" cy="450.00" r="2.6" fill="#2878b5" data-gene="EGFL7" data-significant="false"/>
<circle cx="343.32" cy="450.00" r="2.6" fill="#2878b5" data-gene="SDC4" data-significant="false"/>
<circle cx="345.67" cy="450.00" r="2.6" fill="#2878b5" data-gene="SEC16A" data-significant="false"/>
<circle cx="348.03" cy="450.00" r="2.6" fill="#2878b5" data-gene="YES1" data-significant="false"/>
<circle cx="350.38" cy="450.00" r="2.6" fill="#2878b5" data-gene="IGF2" data-significant="false"/>
<circle cx="352.74" cy="450.00" r="2.6" fill="#2878b5" data-gene="NR4A3" data-significant="false"/>
<circle cx="355.10" cy="450.00" r="2.6" fill="#2878b5" data-gene="USP34" data-significant="false"/>
<circle cx="357.45" cy="450.00" r="2.6" fill="#2878b5" data-gene="SFPQ" data-significant="false"/>
<circle cx="359.81" cy="406.74" r="2.6" fill="#2878b5" data-gene="TSC1" data-significant="false"/>
<circle cx="362.16" cy="450.00" r="2.6" fill="#2878b5" data-gene="ATR" data-significant="false"/>
<circle cx="364.52" cy="450.00" r="2.6" fill="#2878b5" data-gene="DNMT3B" data-significant="false"/>
<circle cx="366.88" cy="450.00" r="2.6" fill="#2878b5" data-gene="BCOR" data-significant="false"/>
<circle cx="369.23" cy="450.00" r="2.6" fill="#2878b5" data-gene="CARD11" data-significant="false"/>
<circle cx="371.59" cy="450.00" r="2.6" fill="#2878b5" data-gene="TAP1" data-significant="false"/>
<circle cx="373.95" cy="450.00" r="2.6" fill="#2878b5" data-gene="CCND1" data-significant="false"/>
<circle cx="376.30" cy="392.14" r="2.6" fill="#2878b5" data-gene="TOP1" data-significant="false"/>
<circle cx="378.66" cy="320.54" r="2.6" fill="#2878b5" data-gene="DNAJB1" data-significant="false"/>
<circle cx="381.01" cy="432.52" r="2.6" fill="#2878b5" data-gene="ZNRF3" data-significant="false"/>
<circle cx="383.37" cy="450.00" r="2.6" fill="#2878b5" data-gene="ASXL1" data-significant="false"/>
<circle cx="385.73" cy="432.73" r="2.6" fill="#2878b5" data-gene="CD79A" data-significant="false"/>
<circle cx="388.08" cy="450.00" r="2.6" fill="#2878b5" data-gene="KEAP1" data-significant="false"/>
<circle cx="390.44" cy="450.00" r="2.6" fill="#2878b5" data-gene="SMO" data-significant="false"/>
<circle cx="392.79" cy="450.00" r="2.6" fill="#2878b5" data-gene="FGF19" data-significant="false"/>
<circle cx="395.15" cy="86.36" r="4.0" fill="#d62728" data-gene="ETV6" data-significant="true"/>
<circle cx="397.51" cy="320.54" r="2.6" fill="#2878b5" data-gene="TTC28" data-significant="false"/>
<circle cx="399.86" cy="420.97" r="2.6" fill="#2878b5" data-gene="FBXL20" data-significant="false"/>
<circle cx="402.22" cy="434.95" r="2.6" fill="#2878b5" data-gene="ABL1" data-significant="false"/>
<circle cx="404.58" cy="450.00" r="2.6" fill="#2878b5" data-gene="JAK3" data-significant="false"/>
<circle cx="406.93" cy="450.00" r="2.6" fill="#2878b5" data-gene="TEK" data-significant="false"/>
<circle cx="409.29" cy="450.00" r="2.6" fill="#2878b5" data-gene="CSF1R" data-significant="false"/>
<circle cx="411.64" cy="432.73" r="2.6" fill="#2878b5" data-gene="BRIP1" data-significant="false"/>
<circle cx="414.00" cy="238.20" r="4.0" fill="#d62728" data-gene="RET" data-significant="true"/>
<circle cx="416.36" cy="320.54" r="2.6" fill="#2878b5" data-gene="NRG1" data-significant="false"/>
<circle cx="418.71" cy="320.54" r="2.6" fill="#2878b5" data-gene="TERT" data-significant="false"/>
<circle cx="421.07" cy="450.00" r="2.6" fill="#2878b5" data-gene="MAP2K4" data-significant="false"/>
<circle cx="423.42" cy="450.00" r="2.6" fill="#2878b5" data-gene="CTNNA3" data-significant="false"/>
<circle cx="425.78" cy="450.00" r="2.6" fill="#2878b5" data-gene="ETV4" data-significant="false"/>
<circle cx="428.14" cy="450.00" r="2.6" fill="#2878b5" data-gene="EZH1" data-significant="false"/>
<circle cx="430.49" cy="450.00" r="2.6" fill="#2878b5" data-gene="CIC" data-significant="false"/>
<circle cx="432.85" cy="450.00" r="2.6" fill="#2878b5" data-gene="PTK2" data-significant="false"/>
<circle cx="435.21" cy="429.51" r="2.6" fill="#2878b5" data-gene="NELL1" data-significant="false"/>
<circle cx="437.56" cy="450.00" r="2.6" fill="#2878b5" data-gene="MAD1L1" data-significant="false"/>
<circle cx="439.92" cy="450.00" r="2.6" fill="#2878b5" data-gene="ACOXL" data-significant="false"/>
<circle cx="442.27" cy="450.00" r="2.6" fill="#2878b5" data-gene="ARID2" data-significant="false"/>
<circle cx="444.63" cy="450.00" r="2.6" fill="#2878b5" data-gene="CBL" data-significant="false"/>
<circle cx="446.99" cy="450.00" r="2.6" fill="#2878b5" data-gene="PDE4D" data-significant="false"/>
<circle cx="449.34" cy="320.54" r="2.6" fill="#2878b5" data-gene="ROS1" data-significant="false"/>
<circle cx="451.70" cy="436.65" r="2.6" fill="#2878b5" data-gene="CDKN2B" data-significant="false"/>
<circle cx="454.05" cy="444.91" r="2.6" fill="#2878b5" data-gene="NOTCH4" data-significant="false"/>
<circle cx="456.41" cy="450.00" r="2.6" fill="#2878b5" data-gene="ZFHX3" data-significant="false"/>
<circle cx="458.77" cy="450.00" r="2.6" fill="#2878b5" data-gene="SETD2" data-significant="false"/>
<circle cx="461.12" cy="320.54" r="2.6" fill="#2878b5" data-gene="RB1" data-significant="false"/>
<circle cx="463.48" cy="355.24" r="2.6" fill="#2878b5" data-gene="NCOR1" data-significant="false"/>
<circle cx="465.84" cy="434.95" r="2.6" fill="#2878b5" data-gene="SPEN" data-significant="false"/>
<circle cx="468.19" cy="320.54" r="2.6" fill="#2878b5" data-gene="FGFR2" data-significant="false"/>
<circle cx="470.55" cy="450.00" r="2.6" fill="#2878b5" data-gene="AKT3" data-significant="false"/>
<circle cx="472.90" cy="450.00" r="2.6" fill="#2878b5" data-gene="RAD51" data-significant="false"/>
<circle cx="475.26" cy="450.00" r="2.6" fill="#2878b5" data-gene="CNTNAP2" data-significant="false"/>
<circle cx="477.62" cy="450.00" r="2.6" fill="#2878b5" data-gene="TGFBR1" data-significant="false"/>
<circle cx="479.97" cy="450.00" r="2.6" fill="#2878b5" data-gene="NF2" data-significant="false"/>
<circle cx="482.33" cy="450.00" r="2.6" fill="#2878b5" data-gene="DTNB" data-significant="false"/>
<circle cx="484.68" cy="450.00" r="2.6" fill="#2878b5" data-gene="ASXL2" data-significant="false"/>
<circle cx="487.04" cy="320.54" r="2.6" fill="#2878b5" data-gene="RBM10" data-significant="false"/>
<circle cx="489.40" cy="450.00" r="2.6" fill="#2878b5" data-gene="DNMT3A" data-significant="false"/>
<circle cx="491.75" cy="450.00" r="2.6" fill="#2878b5" data-gene="PRKAG2" data-significant="false"/>
<circle cx="494.11" cy="450.00" r="2.6" fill="#2878b5" data-gene="IKZF3" data-significant="false"/>
<circle cx="496.47" cy="450.00" r="2.6" fill="#2878b5" data-gene="AXIN1" data-significant="false"/>
<circle cx="498.82" cy="450.00" r="2.6" fill="#2878b5" data-gene="PLK2" data-significant="false"/>
<circle cx="501.18" cy="450.00" r="2.6" fill="#2878b5" data-gene="SMURF2" data-significant="false"/>
<circle cx="503.53" cy="355.24" r="2.6" fill="#2878b5" data-gene="NCOA3" data-significant="false"/>
<circle cx="505.89" cy="450.00" r="2.6" fill="#2878b5" data-gene="CUL1" data-significant="false"/>
<circle cx="508.25" cy="440.28" r="2.6" fill="#2878b5" data-gene="DROSHA" data-significant="false"/>
<circle cx="510.60" cy="447.19" r="2.6" fill="#2878b5" data-gene="PRKD1" data-significant="false"/>
<circle cx="512.96" cy="450.00" r="2.6" fill="#2878b5" data-gene="TP53BP1" data-significant="false"/>
<circle cx="515.32" cy="450.00" r="2.6" fill="#2878b5" data-gene="CREM" data-significant="false"/>
<circle cx="517.67" cy="432.73" r="2.6" fill="#2878b5" data-gene="ATRX" data-significant="false"/>
<circle cx="520.03" cy="320.54" r="2.6" fill="#2878b5" data-gene="NTRK1" data-significant="false"/>
<circle cx="522.38" cy="450.00" r="2.6" fill="#2878b5" data-gene="GPATCH8" data-significant="false"/>
<circle cx="524.74" cy="422.07" r="2.6" fill="#2878b5" data-gene="EIF4E" data-significant="false"/>
<circle cx="527.10" cy="320.54" r="2.6" fill="#2878b5" data-gene="CREBBP" data-significant="false"/>
<circle cx="529.45" cy="450.00" r="2.6" fill="#2878b5" data-gene="JAK1" data-significant="false"/>
<circle cx="531.81" cy="450.00" r="2.6" fill="#2878b5" data-gene="SRC" data-significant="false"/>
<circle cx="534.16" cy="450.00" r="2.6" fill="#2878b5" data-gene="NPM1" data-significant="false"/>
<circle cx="536.52" cy="450.00" r="2.6" fill="#2878b5" data-gene="MDM4" data-significant="false"/>
<circle cx="538.88" cy="450.00" r="2.6" fill="#2878b5" data-gene="THSD4" data-significant="false"/>
<circle cx="541.23" cy="450.00" r="2.6" fill="#2878b5" data-gene="PARP1" data-significant="false"/>
<circle cx="543.59" cy="386.68" r="2.6" fill="#2878b5" data-gene="NOTCH1" data-significant="false"/>
<circle cx="545.95" cy="320.54" r="2.6" fill="#2878b5" data-gene="MET" data-significant="false"/>
<circle cx="548.30" cy="450.00" r="2.6" fill="#2878b5" data-gene="SDHA" data-significant="false"/>
<circle cx="550.66" cy="450.00" r="2.6" fill="#2878b5" data-gene="MSI1" data-significant="false"/>
<circle cx="553.01" cy="450.00" r="2.6" fill="#2878b5" data-gene="UPF1" data-significant="false"/>
<circle cx="555.37" cy="450.00" r="2.6" fill="#2878b5" data-gene="ERBB4" data-significant="false"/>
<circle cx="557.73" cy="450.00" r="2.6" fill="#2878b5" data-gene="MST1R" data-significant="false"/>
<circle cx="560.08" cy="450.00" r="2.6" fill="#2878b5" data-gene="SMAD3" data-significant="false"/>
<circle cx="562.44" cy="450.00" r="2.6" fill="#2878b5" data-gene="PDGFRB" data-significant="false"/>
<circle cx="564.79" cy="450.00" r="2.6" fill="#2878b5" data-gene="VTCN1" data-significant="false"/>
<circle cx="567.15" cy="450.00" r="2.6" fill="#2878b5" data-gene="FOXP1" data-significant="false"/>
<circle cx="569.51" cy="450.00" r="2.6" fill="#2878b5" data-gene="YAP1" data-significant="false"/>
<circle cx="571.86" cy="450.00" r="2.6" fill="#2878b5" data-gene="CCNE1" data-significant="false"/>
<circle cx="574.22" cy="450.00" r="2.6" fill="#2878b5" data-gene="SF3B1" data-significant="false"/>
<circle cx="576.58" cy="450.00" r="2.6" fill="#2878b5" data-gene="ERCC4" data-significant="false"/>
<circle cx="578.93" cy="450.00" r="2.6" fill="#2878b5" data-gene="GAB2" data-significant="false"/>
<circle cx="581.29" cy="450.00" r="2.6" fill="#2878b5" data-gene="CAMTA1" data-significant="false"/>
<circle cx="583.64" cy="450.00" r="2.6" fill="#2878b5" data-gene="CPM" data-significant="false"/>
<circle cx="586.00" cy="438.80" r="2.6" fill="#2878b5" data-gene="RAD21" data-significant="false"/>
<circle cx="588.36" cy="450.00" r="2.6" fill="#2878b5" data-gene="PBRM1" data-significant="false"/>
<circle cx="590.71" cy="432.73" r="2.6" fill="#2878b5" data-gene="PAK1" data-significant="false"/>
<circle cx="593.07" cy="450.00" r="2.6" fill="#2878b5" data-gene="LATS1" data-significant="false"/>
<circle cx="595.42" cy="320.54" r="2.6" fill="#2878b5" data-gene="TFE3" data-significant="false"/>
<circle cx="597.78" cy="450.00" r="2.6" fill="#2878b5" data-gene="CSF3R" data-significant="false"/>
<circle cx="600.14" cy="450.00" r="2.6" fill="#2878b5" data-gene="BCL2L11" data-significant="false"/>
<circle cx="602.49" cy="448.85" r="2.6" fill="#2878b5" data-gene="PRKAR1A" data-significant="false"/>
<circle cx="604.85" cy="450.00" r="2.6" fill="#2878b5" data-gene="PDGFRA" data-significant="false"/>
<circle cx="607.21" cy="421.64" r="2.6" fill="#2878b5" data-gene="BAP1" data-significant="false"/>
<circle cx="609.56" cy="450.00" r="2.6" fill="#2878b5" data-gene="MYD88" data-significant="false"/>
<circle cx="611.92" cy="450.00" r="2.6" fill="#2878b5" data-gene="PPP2R1A" data-significant="false"/>
<circle cx="614.27" cy="320.54" r="2.6" fill="#2878b5" data-gene="SLX4" data-significant="false"/>
<circle cx="616.63" cy="447.19" r="2.6" fill="#2878b5" data-gene="INSR" data-significant="false"/>
<circle cx="618.99" cy="450.00" r="2.6" fill="#2878b5" data-gene="RUNX1" data-significant="false"/>
<circle cx="621.34" cy="450.00" r="2.6" fill="#2878b5" data-gene="BCL2L1" data-significant="false"/>
<circle cx="623.70" cy="450.00" r="2.6" fill="#2878b5" data-gene="PTPRT" data-significant="false"/>
<circle cx="626.05" cy="411.93" r="2.6" fill="#2878b5" data-gene="FLT4" data-significant="false"/>
<circle cx="628.41" cy="450.00" r="2.6" fill="#2878b5" data-gene="PLCG2" data-significant="false"/>
<circle cx="630.77" cy="450.00" r="2.6" fill="#2878b5" data-gene="CDK4" data-significant="false"/>
<circle cx="633.12" cy="450.00" r="2.6" fill="#2878b5" data-gene="TANC2" data-significant="false"/>
<circle cx="635.48" cy="450.00" r="2.6" fill="#2878b5" data-gene="CACNA1A" data-significant="false"/>
<circle cx="637.84" cy="444.91" r="2.6" fill="#2878b5" data-gene="RICTOR" data-significant="false"/>
<circle cx="640.19" cy="436.65" r="2.6" fill="#2878b5" data-gene="ELF3" data-significant="false"/>
<circle cx="642.55" cy="450.00" r="2.6" fill="#2878b5" data-gene="MAPK1" data-significant="false"/>
<circle cx="644.90" cy="432.73" r="2.6" fill="#2878b5" data-gene="ESR1" data-significant="false"/>
<circle cx="647.26" cy="450.00" r="2.6" fill="#2878b5" data-gene="KDR" data-significant="false"/>
<circle cx="649.62" cy="450.00" r="2.6" fill="#2878b5" data-gene="CTNNB1" data-significant="false"/>
<circle cx="651.97" cy="320.54" r="2.6" fill="#2878b5" data-gene="POLD1" data-significant="false"/>
<circle cx="654.33" cy="424.32" r="2.6" fill="#2878b5" data-gene="STAT5B" data-significant="false"/>
<circle cx="656.68" cy="357.58" r="2.6" fill="#2878b5" data-gene="INPPL1" data-significant="false"/>
<circle cx="659.04" cy="434.95" r="2.6" fill="#2878b5" data-gene="KDM5A" data-significant="false"/>
<circle cx="661.40" cy="450.00" r="2.6" fill="#2878b5" data-gene="SMARCA4" data-significant="false"/>
<circle cx="663.75" cy="450.00" r="2.6" fill="#2878b5" data-gene="SMARCD1" data-significant="false"/>
<circle cx="666.11" cy="450.00" r="2.6" fill="#2878b5" data-gene="PGR" data-significant="false"/>
<circle cx="668.47" cy="450.00" r="2.6" fill="#2878b5" data-gene="EZH2" data-significant="false"/>
<circle cx="670.82" cy="450.00" r="2.6" fill="#2878b5" data-gene="TET1" data-significant="false"/>
<circle cx="673.18" cy="450.00" r="2.6" fill="#2878b5" data-gene="MALT1" data-significant="false"/>
<circle cx="675.53" cy="450.00" r="2.6" fill="#2878b5" data-gene="TP63" data-significant="false"/>
<circle cx="677.89" cy="450.00" r="2.6" fill="#2878b5" data-gene="KREMEN1" data-significant="false"/>
<circle cx="680.25" cy="374.15" r="2.6" fill="#2878b5" data-gene="DNMT1" data-significant="false"/>
<circle cx="682.60" cy="413.43" r="2.6" fill="#2878b5" data-gene="NOTCH2" data-significant="false"/>
<circle cx="684.96" cy="427.16" r="2.6" fill="#2878b5" data-gene="MTOR" data-significant="false"/>
<circle cx="687.32" cy="450.00" r="2.6" fill="#2878b5" data-gene="PTPRD" data-significant="false"/>
<circle cx="689.67" cy="450.00" r="2.6" fill="#2878b5" data-gene="RAD51B" data-significant="false"/>
<circle cx="692.03" cy="450.00" r="2.6" fill="#2878b5" data-gene="TNFRSF14" data-significant="false"/>
<circle cx="694.38" cy="450.00" r="2.6" fill="#2878b5" data-gene="IDH1" data-significant="false"/>
<circle cx="696.74" cy="450.00" r="2.6" fill="#2878b5" data-gene="GSK3B" data-significant="false"/>
<circle cx="699.10" cy="450.00" r="2.6" fill="#2878b5" data-gene="MLH1" data-significant="false"/>
<circle cx="701.45" cy="450.00" r="2.6" fill="#2878b5" data-gene="PHF7" data-significant="false"/>
<circle cx="703.81" cy="450.00" r="2.6" fill="#2878b5" data-gene="RAD51D" data-significant="false"/>
<circle cx="706.16" cy="450.00" r="2.6" fill="#2878b5" data-gene="CUL3" data-significant="false"/>
<circle cx="708.52" cy="450.00" r="2.6" fill="#2878b5" data-gene="ARAF" data-significant="false"/>
<circle cx="710.88" cy="450.00" r="2.6" fill="#2878b5" data-gene="PPARG" data-significant="false"/>
<circle cx="713.23" cy="450.00" r="2.6" fill="#2878b5" data-gene="CDK6" data-significant="false"/>
<circle cx="715.59" cy="450.00" r="2.6" fill="#2878b5" data-gene="TACC1" data-significant="false"/>
<circle cx="717.95" cy="450.00" r="2.6" fill="#2878b5" data-gene="TFG" data-significant="false"/>
<circle cx="720.30" cy="450.00" r="2.6" fill="#2878b5" data-gene="LRP1B" data-significant="false"/>
<circle cx="722.66" cy="450.00" r="2.6" fill="#2878b5" data-gene="RAC2" data-significant="false"/>
<circle cx="725.01" cy="450.00" r="2.6" fill="#2878b5" data-gene="FLCN" data-significant="false"/>
<circle cx="727.37" cy="450.00" r="2.6" fill="#2878b5" data-gene="PTPRS" data-significant="false"/>
<circle cx="729.73" cy="450.00" r="2.6" fill="#2878b5" data-gene="ERCC2" data-significant="false"/>
<circle cx="732.08" cy="450.00" r="2.6" fill="#2878b5" data-gene="PIK3CD" data-significant="false"/>
<circle cx="734.44" cy="414.14" r="2.6" fill="#2878b5" data-gene="SUFU" data-significant="false"/>
<circle cx="736.79" cy="450.00" r="2.6" fill="#2878b5" data-gene="KDM5C" data-significant="false"/>
<circle cx="739.15" cy="450.00" r="2.6" fill="#2878b5" data-gene="KDM6A" data-significant="false"/>
<circle cx="741.51" cy="320.54" r="2.6" fill="#2878b5" data-gene="BRAF" data-significant="false"/>
<circle cx="743.86" cy="450.00" r="2.6" fill="#2878b5" data-gene="GNAS" data-significant="false"/>
<circle cx="746.22" cy="450.00" r="2.6" fill="#2878b5" data-gene="MDM2" data-significant="false"/>
<circle cx="748.58" cy="450.00" r="2.6" fill="#2878b5" data-gene="MDC1" data-significant="false"/>
<circle cx="750.93" cy="397.59" r="2.6" fill="#2878b5" data-gene="MAP3K1" data-significant="false"/>
<circle cx="753.29" cy="431.05" r="2.6" fill="#2878b5" data-gene="CDH1" data-significant="false"/>
<circle cx="755.64" cy="450.00" r="2.6" fill="#2878b5" data-gene="IRS2" data-significant="false"/>
<circle cx="758.00" cy="450.00" r="2.6" fill="#2878b5" data-gene="PTEN" data-significant="false"/>
<circle cx="760.36" cy="450.00" r="2.6" fill="#2878b5" data-gene="RPS6KB2" data-significant="false"/>
<circle cx="762.71" cy="450.00" r="2.6" fill="#2878b5" data-gene="CALR" data-significant="false"/>
<circle cx="765.07" cy="450.00" r="2.6" fill="#2878b5" data-gene="CASP8" data-significant="false"/>
<circle cx="767.42" cy="450.00" r="2.6" fill="#2878b5" data-gene="FGFR4" data-significant="false"/>
<circle cx="769.78" cy="450.00" r="2.6" fill="#2878b5" data-gene="RTEL1" data-significant="false"/>
<circle cx="772.14" cy="433.39" r="2.6" fill="#2878b5" data-gene="MAP2K2" data-significant="false"/>
<circle cx="774.49" cy="450.00" r="2.6" fill="#2878b5" data-gene="PIK3C2G" data-significant="false"/>
<circle cx="776.85" cy="450.00" r="2.6" fill="#2878b5" data-gene="DOT1L" data-significant="false"/>
<circle cx="779.21" cy="418.81" r="2.6" fill="#2878b5" data-gene="FH" data-significant="false"/>
<circle cx="781.56" cy="450.00" r="2.6" fill="#2878b5" data-gene="KMT2A" data-significant="false"/>
<circle cx="783.92" cy="450.00" r="2.6" fill="#2878b5" data-gene="IKBKE" data-significant="false"/>
<circle cx="786.27" cy="353.43" r="2.6" fill="#2878b5" data-gene="AKT2" data-significant="false"/>
<circle cx="788.63" cy="448.85" r="2.6" fill="#2878b5" data-gene="NUF2" data-significant="false"/>
<circle cx="790.99" cy="450.00" r="2.6" fill="#2878b5" data-gene="AXL" data-significant="false"/>
<circle cx="793.34" cy="450.00" r="2.6" fill="#2878b5" data-gene="PIK3R2" data-significant="false"/>
<circle cx="795.70" cy="450.00" r="2.6" fill="#2878b5" data-gene="RPS6KA4" data-significant="false"/>
<circle cx="798.05" cy="450.00" r="2.6" fill="#2878b5" data-gene="NSD1" data-significant="false"/>
<circle cx="800.41" cy="450.00" r="2.6" fill="#2878b5" data-gene="FUBP1" data-significant="false"/>
<circle cx="802.77" cy="320.54" r="2.6" fill="#2878b5" data-gene="TP53" data-significant="false"/>
<circle cx="805.12" cy="450.00" r="2.6" fill="#2878b5" data-gene="PPM1D" data-significant="false"/>
<circle cx="807.48" cy="432.73" r="2.6" fill="#2878b5" data-gene="XPO1" data-significant="false"/>
<circle cx="809.84" cy="450.00" r="2.6" fill="#2878b5" data-gene="BRCA2" data-significant="false"/>
<circle cx="812.19" cy="450.00" r="2.6" fill="#2878b5" data-gene="STAT3" data-significant="false"/>
<circle cx="814.55" cy="450.00" r="2.6" fill="#2878b5" data-gene="IGF1R" data-significant="false"/>
<circle cx="816.90" cy="450.00" r="2.6" fill="#2878b5" data-gene="RAF1" data-significant="false"/>
<circle cx="819.26" cy="450.00" r="2.6" fill="#2878b5" data-gene="NOTCH3" data-significant="false"/>
<circle cx="821.62" cy="424.32" r="2.6" fill="#2878b5" data-gene="STAT5A" data-significant="false"/>
<circle cx="823.97" cy="450.00" r="2.6" fill="#2878b5" data-gene="RPTOR" data-significant="false"/>
<circle cx="826.33" cy="450.00" r="2.6" fill="#2878b5" data-gene="RARA" data-significant="false"/>
<circle cx="828.68" cy="444.91" r="2.6" fill="#2878b5" data-gene="MGA" data-significant="false"/>
<circle cx="831.04" cy="432.73" r="2.6" fill="#2878b5" data-gene="ERBB3" data-significant="false"/>
<circle cx="833.40" cy="424.50" r="2.6" fill="#2878b5" data-gene="BCAS3" data-significant="false"/>
<circle cx="835.75" cy="450.00" r="2.6" fill="#2878b5" data-gene="BRD4" data-significant="false"/>
<circle cx="838.11" cy="450.00" r="2.6" fill="#2878b5" data-gene="BRCA1" data-significant="false"/>
<circle cx="840.47" cy="434.95" r="2.6" fill="#2878b5" data-gene="ATM" data-significant="false"/>
<circle cx="842.82" cy="450.00" r="2.6" fill="#2878b5" data-gene="FGFR1" data-significant="false"/>
<circle cx="845.18" cy="450.00" r="2.6" fill="#2878b5" data-gene="GLI1" data-significant="false"/>
<circle cx="847.53" cy="320.54" r="2.6" fill="#2878b5" data-gene="EGFR" data-significant="false"/>
<circle cx="849.89" cy="450.00" r="2.6" fill="#2878b5" data-gene="KMT2C" data-significant="false"/>
<circle cx="852.25" cy="450.00" r="2.6" fill="#2878b5" data-gene="KMT2D" data-significant="false"/>
<circle cx="854.60" cy="450.00" r="2.6" fill="#2878b5" data-gene="NF1" data-significant="false"/>
<circle cx="856.96" cy="359.77" r="2.6" fill="#2878b5" data-gene="RNF43" data-significant="false"/>
<circle cx="859.32" cy="320.54" r="2.6" fill="#2878b5" data-gene="CDK12" data-significant="false"/>
<circle cx="861.67" cy="450.00" r="2.6" fill="#2878b5" data-gene="EP300" data-significant="false"/>
<circle cx="864.03" cy="450.00" r="2.6" fill="#2878b5" data-gene="STK11" data-significant="false"/>
<circle cx="866.38" cy="450.00" r="2.6" fill="#2878b5" data-gene="TSC2" data-significant="false"/>
<circle cx="868.74" cy="450.00" r="2.6" fill="#2878b5" data-gene="EPHX3" data-significant="false"/>
<circle cx="871.10" cy="402.33" r="2.6" fill="#2878b5" data-gene="EWSR1" data-significant="false"/>
<circle cx="873.45" cy="450.00" r="2.6" fill="#2878b5" data-gene="DNM2" data-significant="false"/>
<circle cx="875.81" cy="450.00" r="2.6" fill="#2878b5" data-gene="ARID1A" data-significant="false"/>
<circle cx="878.16" cy="450.00" r="2.6" fill="#2878b5" data-gene="CARM1" data-significant="false"/>
<circle cx="880.52" cy="450.00" r="2.6" fill="#2878b5" data-gene="POLE" data-significant="false"/>
<circle cx="882.88" cy="450.00" r="2.6" fill="#2878b5" data-gene="ERBB2" data-significant="false"/>
<circle cx="885.23" cy="450.00" r="2.6" fill="#2878b5" data-gene="TRAF7" data-significant="false"/>
<circle cx="887.59" cy="450.00" r="2.6" fill="#2878b5" data-gene="FANCA" data-significant="false"/>
<circle cx="889.95" cy="450.00" r="2.6" fill="#2878b5" data-gene="PRKCI" data-significant="false"/>
<circle cx="892.30" cy="450.00" r="2.6" fill="#2878b5" data-gene="CDKN2C" data-significant="false"/>
<circle cx="894.66" cy="450.00" r="2.6" fill="#2878b5" data-gene="FLT1" data-significant="false"/>
<circle cx="897.01" cy="450.00" r="2.6" fill="#2878b5" data-gene="NTHL1" data-significant="false"/>
<circle cx="899.37" cy="450.00" r="2.6" fill="#2878b5" data-gene="SMARCA2" data-significant="false"/>
<circle cx="901.73" cy="450.00" r="2.6" fill="#2878b5" data-gene="FYN" data-significant="false"/>
<circle cx="904.08" cy="450.00" r="2.6" fill="#2878b5" data-gene="PAX5" data-significant="false"/>
<circle cx="906.44" cy="450.00" r="2.6" fill="#2878b5" data-gene="PIK3R1" data-significant="false"/>
<circle cx="908.79" cy="450.00" r="2.6" fill="#2878b5" data-gene="PIK3R3" data-significant="false"/>
<circle cx="911.15" cy="450.00" r="2.6" fill="#2878b5" data-gene="SOS1" data-significant="false"/>
<circle cx="913.51" cy="450.00" r="2.6" fill="#2878b5" data-gene="RXRA" data-significant="false"/>
<circle cx="915.86" cy="450.00" r="2.6" fill="#2878b5" data-gene="STK40" data-significant="false"/>
<circle cx="918.22" cy="450.00" r="2.6" fill="#2878b5" data-gene="KRAS" data-significant="false"/>
<circle cx="920.58" cy="450.00" r="2.6" fill="#2878b5" data-gene="DCUN1D1" data-significant="false"/>
<circle cx="922.93" cy="450.00" r="2.6" fill="#2878b5" data-gene="SMYD3" data-significant="false"/>
<circle cx="925.29" cy="450.00" r="2.6" fill="#2878b5" data-gene="CDK8" data-significant="false"/>
<circle cx="927.64" cy="450.00" r="2.6" fill="#2878b5" data-gene="SESN3" data-significant="false"/>
<circle cx="930.00" cy="450.00" r="2.6" fill="#2878b5" data-gene="PAX8" data-significant="false"/>
<text x="74.71" y="310.54" font-family="sans-serif" font-size="9" text-anchor="middle">PRKACA</text>
<text x="84.14" y="298.54" font-family="sans-serif" font-size="9" text-anchor="middle">KIAA1549</text>
<text x="86.49" y="286.54" font-family="sans-serif" font-size="9" text-anchor="middle">WT1</text>
<text x="100.63" y="310.54" font-family="sans-serif" font-size="9" text-anchor="middle">TRAPPC9</text>
<text x="107.70" y="298.54" font-family="sans-serif" font-size="9" text-anchor="middle">EML4</text>
<text x="110.05" y="286.54" font-family="sans-serif" font-size="9" text-anchor="middle">CD74</text>
<text x="114.77" y="310.54" font-family="sans-serif" font-size="9" text-anchor="middle">NTRK3</text>
<text x="147.75" y="298.54" font-family="sans-serif" font-size="9" text-anchor="middle">TPM3</text>
<text x="150.11" y="286.54" font-family="sans-serif" font-size="9" text-anchor="middle">ETV1</text>
<text x="152.47" y="310.54" font-family="sans-serif" font-size="9" text-anchor="middle">TMPRSS2</text>
<text x="154.82" y="298.54" font-family="sans-serif" font-size="9" text-anchor="middle">ALK</text>
<text x="157.18" y="286.54" font-family="sans-serif" font-size="9" text-anchor="middle">AGK</text>
<text x="159.53" y="310.54" font-family="sans-serif" font-size="9" text-anchor="middle">EZR</text>
<text x="395.15" y="64.36" font-family="sans-serif" font-size="9" text-anchor="middle">ETV6</text>
<text x="414.00" y="204.20" font-family="sans-serif" font-size="9" text-anchor="middle">RET</text>
<circle cx="80" cy="38" r="4" fill="#d62728"/>
<text x="90" y="42" font-family="sans-serif" font-size="11">FDR-significant (q &lt; significance threshold)</text>
<circle cx="350" cy="38" r="3" fill="#2878b5"/>
<text x="360" y="42" font-family="sans-serif" font-size="11">Not significant</text>
</svg>
